HIERARCHY
ROOT Hips
{
	OFFSET -0.001795 -0.223333 0.028219
	CHANNELS 6 Xposition Yposition Zposition Zrotation Yrotation Xrotation 
	JOINT LeftUpLeg
	{
		OFFSET 0.069520 -0.091406 -0.006815
		CHANNELS 3 Zrotation Yrotation Xrotation
		JOINT LeftLeg
		{
			OFFSET 0.034277 -0.375199 -0.004496
			CHANNELS 3 Zrotation Yrotation Xrotation
			JOINT LeftFoot
			{
				OFFSET -0.013596 -0.397961 -0.043693
				CHANNELS 3 Zrotation Yrotation Xrotation
				JOINT LeftToe
				{
					OFFSET 0.026358 -0.055791 0.119288
					CHANNELS 3 Zrotation Yrotation Xrotation
					End Site
					{
						OFFSET 0.000000 0.000000 0.000000
					}
				}
			}
		}
	}
	JOINT RightUpLeg
	{
		OFFSET -0.067670 -0.090522 -0.004320
		CHANNELS 3 Zrotation Yrotation Xrotation
		JOINT RightLeg
		{
			OFFSET -0.038290 -0.382569 -0.008850
			CHANNELS 3 Zrotation Yrotation Xrotation
			JOINT RightFoot
			{
				OFFSET 0.015774 -0.398415 -0.042312
				CHANNELS 3 Zrotation Yrotation Xrotation
				JOINT RightToe
				{
					OFFSET -0.025372 -0.048144 0.123348
					CHANNELS 3 Zrotation Yrotation Xrotation
					End Site
					{
						OFFSET 0.000000 0.000000 0.000000
					}
				}
			}
		}
	}
	JOINT Spine
	{
		OFFSET -0.002533 0.108963 -0.026696
		CHANNELS 3 Zrotation Yrotation Xrotation
		JOINT Spine1
		{
			OFFSET 0.005487 0.135180 0.001092
			CHANNELS 3 Zrotation Yrotation Xrotation
			JOINT Spine2
			{
				OFFSET 0.001457 0.052922 0.025425
				CHANNELS 3 Zrotation Yrotation Xrotation
				JOINT Neck
				{
					OFFSET -0.002778 0.213870 -0.042857
					CHANNELS 3 Zrotation Yrotation Xrotation
					JOINT Head
					{
						OFFSET 0.005152 0.064970 0.051349
						CHANNELS 3 Zrotation Yrotation Xrotation
						End Site
						{
							OFFSET 0.000000 0.000000 0.000000
						}
					}
				}
				JOINT LeftShoulder
				{
					OFFSET 0.078845 0.121749 -0.034090
					CHANNELS 3 Zrotation Yrotation Xrotation
					JOINT LeftArm
					{
						OFFSET 0.090977 0.030469 -0.008868
						CHANNELS 3 Zrotation Yrotation Xrotation
						JOINT LeftForeArm
						{
							OFFSET 0.259612 -0.012772 -0.027456
							CHANNELS 3 Zrotation Yrotation Xrotation
							JOINT LeftHand
							{
								OFFSET 0.249234 0.008986 -0.001171
								CHANNELS 3 Zrotation Yrotation Xrotation
								End Site
								{
									OFFSET 0.000000 0.000000 0.000000
								}
							}
						}
					}
				}
				JOINT RightShoulder
				{
					OFFSET -0.081759 0.118833 -0.038615
					CHANNELS 3 Zrotation Yrotation Xrotation
					JOINT RightArm
					{
						OFFSET -0.096012 0.032551 -0.009143
						CHANNELS 3 Zrotation Yrotation Xrotation
						JOINT RightForeArm
						{
							OFFSET -0.253742 -0.013329 -0.021401
							CHANNELS 3 Zrotation Yrotation Xrotation
							JOINT RightHand
							{
								OFFSET -0.255298 0.007772 -0.005559
								CHANNELS 3 Zrotation Yrotation Xrotation
								End Site
								{
									OFFSET 0.000000 0.000000 0.000000
								}
							}
						}
					}
				}
			}
		}
	}
}
MOTION
Frames: 7
Frame Time: 0.050000
0.000000 0.965547 0.000000 -17.489197 6.323259 -30.530670 10.404689 -0.915832 21.011484 1.749871 -1.031890 12.378150 -4.973965 -3.252205 9.677223 0.000000 0.000000 0.000000 -12.508002 -6.121612 -66.329059 16.758319 -23.874804 103.344659 -11.217244 -28.566701 -7.752668 0.000000 0.000000 0.000000 9.305537 -2.995293 23.306401 3.136489 -0.091756 -19.405866 -2.457139 -10.242184 25.752182 2.251174 -1.585817 -13.606817 0.000000 0.000000 0.000000 -28.261308 -11.981687 6.590874 -38.667553 -30.856417 2.792579 10.892303 -56.707776 -2.455164 0.000000 0.000000 0.000000 25.560217 -3.188293 -4.223183 50.007041 -14.148217 -12.777867 19.751153 41.735210 9.334602 0.000000 0.000000 0.000000 
-0.002611 0.981465 0.014747 -18.981303 5.905988 -29.135410 11.580418 -1.367422 23.193890 2.525387 -0.953435 9.737412 -4.822612 -1.892762 11.560842 0.000000 0.000000 0.000000 -15.015640 -8.722753 -71.198162 21.898514 -26.951767 96.424333 -11.969886 -27.892344 4.200821 0.000000 0.000000 0.000000 11.771802 -3.156002 22.036414 2.694870 0.100270 -19.392457 -3.204553 -11.162836 24.458364 2.709891 -1.913782 -14.779057 0.000000 0.000000 0.000000 -32.555471 -14.344295 8.826014 -34.693561 -31.336467 2.350068 12.933299 -59.011260 -3.900075 0.000000 0.000000 0.000000 29.312194 -2.658676 -4.973267 44.544864 -16.734768 -11.820533 24.797258 44.696457 11.831511 0.000000 0.000000 0.000000 
-0.005134 0.985902 0.028190 -17.466038 3.087380 -28.989025 10.629960 -0.891858 25.125168 1.900764 -0.895583 10.830623 -3.877267 -0.161319 12.659168 0.000000 0.000000 0.000000 -13.780417 -6.350929 -74.479504 23.489398 -27.518502 95.111072 -13.639179 -31.766040 2.166460 0.000000 0.000000 0.000000 14.269120 -3.274926 22.044790 -1.262212 1.356876 -16.690284 -1.868209 -9.839242 21.979989 4.153711 -3.611324 -9.638604 0.000000 0.000000 0.000000 -31.635779 -16.287182 9.974718 -35.182824 -30.798871 2.416413 13.178590 -56.854662 -3.994385 0.000000 0.000000 0.000000 27.956667 -2.377536 -4.798652 44.562745 -16.997686 -11.780329 22.583482 43.796236 10.477983 0.000000 0.000000 0.000000 
-0.007636 0.987342 0.040423 -16.617878 2.559660 -27.836900 9.735972 -0.693009 26.728164 2.006863 -0.771304 8.990118 -3.883304 0.130074 13.579259 0.000000 0.000000 0.000000 -13.563403 -5.812931 -76.171410 26.883651 -30.563323 92.914506 -15.949965 -35.193456 5.755656 0.000000 0.000000 0.000000 15.339395 -3.278831 21.457054 -1.368983 1.370113 -15.295233 -3.227272 -9.577635 20.083290 6.106576 -5.270600 -8.327228 0.000000 0.000000 0.000000 -32.275524 -18.041273 11.244244 -33.307621 -28.653818 1.700469 13.349710 -55.038292 -4.153490 0.000000 0.000000 0.000000 31.376328 -2.665435 -5.888608 41.546513 -17.876529 -10.878419 21.921162 45.583008 10.511003 0.000000 0.000000 0.000000 
-0.009617 0.982045 0.051839 -14.396214 0.442018 -25.830180 8.025166 0.077362 26.395550 1.306231 -0.621170 9.033879 -4.281925 -0.365151 14.804563 0.000000 0.000000 0.000000 -13.107479 -3.573539 -75.435239 30.100523 -31.924809 88.893708 -18.739760 -37.221427 13.348128 0.000000 0.000000 0.000000 16.101787 -3.410550 22.162466 -3.115935 1.877153 -17.684635 -4.321504 -8.839972 21.040778 7.989091 -6.835407 -8.757359 0.000000 0.000000 0.000000 -30.680289 -17.321337 10.933403 -34.307783 -28.053514 1.462869 10.645380 -51.853598 -2.402403 0.000000 0.000000 0.000000 33.585374 -1.829377 -6.063664 41.694675 -16.314665 -10.354535 18.439812 47.107047 9.380896 0.000000 0.000000 0.000000 
-0.011051 0.975333 0.062798 -11.759070 -0.783037 -24.647499 5.521151 0.857787 25.719333 -0.280187 -0.316963 9.528148 -2.108878 2.713994 14.659889 0.000000 0.000000 0.000000 -11.669313 -1.158699 -72.201646 27.616473 -28.994107 89.538714 -16.105139 -32.424916 16.018365 0.000000 0.000000 0.000000 15.085181 -3.294216 22.988825 -3.483709 1.875150 -19.585351 -5.672070 -7.988544 21.501445 7.331414 -5.881827 -11.320643 0.000000 0.000000 0.000000 -30.761991 -15.900633 10.202350 -34.369156 -26.649844 0.990526 6.357852 -51.331651 -0.274477 0.000000 0.000000 0.000000 35.619283 -1.981590 -6.744282 40.893409 -16.214889 -10.018513 16.686685 46.686989 8.529733 0.000000 0.000000 0.000000 
-0.012061 0.966965 0.073344 -10.022354 -0.009507 -21.524491 2.974005 1.268939 23.459297 -0.023042 -0.374958 9.788848 -0.701589 3.144219 9.923673 0.000000 0.000000 0.000000 -9.753287 0.237478 -66.986305 25.292086 -26.314530 89.027976 -13.611090 -28.722060 15.018627 0.000000 0.000000 0.000000 13.947101 -2.878605 20.992395 -3.829613 1.892221 -21.254738 -5.692157 -8.844401 23.495245 8.180053 -6.220439 -15.026937 0.000000 0.000000 0.000000 -29.236548 -16.245098 10.768761 -36.315443 -25.967463 0.714504 8.198421 -49.252621 -0.822353 0.000000 0.000000 0.000000 34.930686 -3.983201 -8.426653 39.872335 -15.483603 -9.493533 19.158576 41.811173 8.336053 0.000000 0.000000 0.000000 
